<?xml version="1.0" standalone="no"?> 
<!DOCTYPE svg PUBLIC "-//W3C//DTD SVG 1.1//EN" "http://www.w3.org/Graphics/SVG/1.1/DTD/svg11.dtd" >
<svg xmlns="http://www.w3.org/2000/svg">
<defs>
  <font id="imago-icons" horiz-adv-x="560">
    <font-face font-family="imago-icons"
      units-per-em="560" ascent="560"
      descent="0" />
    <missing-glyph horiz-adv-x="0" />
    <glyph glyph-name="eye"
      unicode="&#xF701;"
      horiz-adv-x="560" d=" M554.440484 278.570252C526.628358 183.490008 413.646786 112.327627 278.5 112.327627C143.353214 112.327627 30.3716422 183.490008 2.559516369 278.570252C30.3716395 373.6504943 143.353213 444.812877264 278.5 444.812877264C413.646787 444.812877264 526.62836 373.6504943 554.440485 278.570249zM280.131868 186.480885C331.567179 186.480885 373.263736 228.234611 373.263736 279.7404430000001C373.263736 331.246274 331.567179 373 280.131868 373C228.696558 373 187 331.246274 187 279.7404430000001C187 228.234611 228.696558 186.480885 280.131868 186.480885z M238.9999996 279.551308C238.9999996 256.6598273975095 257.5318029988901 238.1026158 280.391941 238.1026158C303.2520790011099 238.1026158 321.7838824 256.6598273975095 321.7838824 279.551308C321.7838824 302.4427886024906 303.2520790011099 321.0000002000001 280.391941 321.0000002000001C257.5318029988901 321.0000002000001 238.9999996 302.4427886024906 238.9999996 279.551308z" />
    <glyph glyph-name="tag"
      unicode="&#xF702;"
      horiz-adv-x="560" d=" M220.112887 518.5689684C220.852169 518.6348913 221.612866 518.3853652 222.177536 517.8206952L518.081037 221.917194C519.096441 220.90179 519.091364 219.256768 518.073613 218.239018L341.500457 41.665861C340.481269 40.646674 338.835931 40.644787 337.822281 41.6584370000001L41.9187796 337.561939C41.3066384 338.17408 41.0653749 339.015046 41.1932781 339.809454C40.8382491 340.2541 40.625 340.817229 40.625 341.429767L40.625 516.7004424C40.625 518.1394883 41.7893088 519.3038224 43.2255564 519.3038224L218.306134 519.3038224C219.004878 519.3038224 219.643409 519.0238073 220.112887 518.5689684zM150 360C177.614237 360 200 382.385763 200 410C200 437.614237 177.614237 460 150 460C122.385763 460 100 437.614237 100 410C100 382.385763 122.385763 360 150 360z" />
    <glyph glyph-name="edit"
      unicode="&#xF703;"
      horiz-adv-x="560" d=" M174.4 39L518.119703 385.902293C519.158162 386.9503680000001 519.14378 388.629252 518.085001 389.654684L386.448333 517.1453156C385.390708 518.1696295 383.691988 518.1560494 382.648392 517.1092232999999L40 173.4L42.0907192 42.730051C42.1142543 41.259104 43.3273937 40.057037 44.8052996 40.045119L174.4 39z M104.269127 45L169 45L45 168L46.5003504 100.502001L104.269127 45z" />
    <glyph glyph-name="cart"
      unicode="&#xF704;"
      horiz-adv-x="560" d=" M400.280036 440L477.339929 440C478.816794 440 480 438.8090456 480 437.3399289L480 42.660071C480 41.1832059999999 478.809046 40 477.339929 40L82.6600711 40C81.18320575 40 80 41.1909539999999 80 42.660071L80 437.3399289C80 438.8167943 81.1909544 440 82.6600711 440L160 440L160 515.00927573C160 517.75526521 162.2345367 520 164.9909774 520L395.289059 520C398.035944 520 400.280036 517.76557664 400.280036 515.00927573L400.280036 440zM201.99403 479C200.892757 479 200 478.1015625 200 477.0025017L200 400.997498C200 399.89431 200.899814 399 201.99403 399L358.00597 399C359.107243 399 360 399.898438 360 400.997498L360 477.0025017C360 478.1056896 359.100186 479 358.00597 479L201.99403 479z" />
    <glyph glyph-name="home"
      unicode="&#xF705;"
      horiz-adv-x="560" d=" M280 80L142.5061441 80C141.1281508 80 140 81.11619 140 82.493081L140 317.5069190000001C140 318.876559 141.1220389 320 142.5061441 320L417.493856 320C418.871849 320 420 318.8838100000001 420 317.5069190000001L420 82.493081C420 81.123441 418.8779610000001 80 417.493856 80L380 80L380 257.507463C380 258.884053 378.876953 260 377.503127 260L282.496873 260C281.117888 260 280 258.875232 280 257.507463L280 80z M81.759422878 321.768227C80.787720454 320.791662 81.112252567 320 82.50222394 320L477.497776 320C478.879716 320 479.214979 320.788943 478.240563 321.768227L281.7586300000001 519.231772451C280.78692 520.208337324 279.214179 520.211056866 278.23977 519.231772451L81.759422878 321.768227z" />
    <glyph glyph-name="loupe"
      unicode="&#xF706;"
      horiz-adv-x="560" d=" M314.5537760000001 201.337112C290.745782 185.832477 262.311455 176.822007 231.770106 176.822007C147.949791 176.822007 80 244.690713 80 328.411004C80 412.131295 147.949791 480 231.770106 480C315.590421 480 383.540213 412.131295 383.540213 328.411004C383.540213 297.9386830000001 374.538239 269.566377 359.045538 245.802334C359.47048 245.695135 359.872407 245.475478 360.204418 245.143468L478.471391 126.876495C479.458399 125.889487 479.450422 124.293508 478.461132 123.304218L437.057596 81.900682C436.066238 80.909324 434.468943 80.906799 433.485319 81.890423L315.218346 200.157396C314.88027 200.495472 314.65893 200.904995 314.5537760000001 201.337112zM231.015532 222.492949C289.999087 222.492949 337.814706 270.251509 337.814706 329.164678C337.814706 388.077847 289.999087 435.836407 231.015532 435.836407C172.031976 435.836407 124.216357 388.077847 124.216357 329.164678C124.216357 270.251509 172.031976 222.492949 231.015532 222.492949z" />
    <glyph glyph-name="trash"
      unicode="&#xF707;"
      horiz-adv-x="560" d=" M122.506036 400C121.12199 400 120 398.8728730000001 120 397.493964L120 82.506036C120 81.12199 121.127127 80 122.506036 80L437.493964 80C438.87801 80 440 81.127127 440 82.506036L440 397.493964C440 398.87801 438.8728730000001 400 437.493964 400L122.506036 400zM162.493081 400C161.11619 400 160 398.871849 160 397.493856L160 122.506144C160 121.122039 161.123441 120 162.493081 120L397.506919 120C398.88381 120 400 121.128151 400 122.506144L400 397.493856C400 398.8779610000001 398.876559 400 397.506919 400L162.493081 400z M82.5 440H477.5A2.5 0 0 0 0 480 440V400A2.5 0 0 0 0 477.5 400H82.5A2.5 0 0 0 0 80 400V440A2.5 0 0 0 0 82.5 440z M182.5 520H377.5A2.5 0 0 0 0 380 520V480A2.5 0 0 0 0 377.5 480H182.5A2.5 0 0 0 0 180 480V520A2.5 0 0 0 0 182.5 520z M322.5 359H357.8710959A2.5 0 0 0 0 360.3710959 359V159.200807A2.5 0 0 0 0 357.8710959 159.200807H322.5A2.5 0 0 0 0 320 159.200807V359A2.5 0 0 0 0 322.5 359z M262.5 359H297.8710959A2.5 0 0 0 0 300.3710959 359V159.200807A2.5 0 0 0 0 297.8710959 159.200807H262.5A2.5 0 0 0 0 260 159.200807V359A2.5 0 0 0 0 262.5 359z M202.5 359H237.8710959A2.5 0 0 0 0 240.3710959 359V159.200807A2.5 0 0 0 0 237.8710959 159.200807H202.5A2.5 0 0 0 0 200 159.200807V359A2.5 0 0 0 0 202.5 359z" />
    <glyph glyph-name="upsize"
      unicode="&#xF708;"
      horiz-adv-x="560" d=" M39 400H400V39H39V400z M120 460.5L120 520L520 520L520 120L460.5 120L481 120L481 481L120 481L120 460.5L120 460.5z" />
    <glyph glyph-name="gear"
      unicode="&#xF709;"
      horiz-adv-x="560" d=" M240 449.940667C221.385392 445.57614 203.918268 438.232198 188.129165 428.4393770000001L140.832382 475.7361602C139.587677 476.9808656 137.572782 476.9840373 136.326182 475.7374366L84.2625634 423.673818C83.0185629 422.429818 83.0181204 420.413337 84.2638398 419.167618L131.560623 371.870835C121.767802 356.081732 114.42386 338.614608 110.059333 320L43.1942376 320C41.4301089 320 40 318.577497 40 316.814537L40 243.1854630000001C40 241.42618 41.4312536 240 43.1942376 240L110.059333 240C114.42386 221.385392 121.767802 203.918268 131.560623 188.129165L84.2687684 140.837311C83.021341 139.589883 83.0159627 137.572782 84.2625634 136.326182L136.326182 84.262563C137.570182 83.018563 139.590693 83.02215 140.837311 84.268768L188.129165 131.560623C203.918268 121.767802 221.385392 114.42386 240 110.059333L240 43.187268C240 41.4269880000001 241.422503 40 243.185463 40L316.814537 40C318.57382 40 320 41.425554 320 43.187268L320 110.059333C338.614608 114.42386 356.081732 121.767802 371.870835 131.560623L419.167618 84.26384C420.412323 83.019134 422.427218 83.015963 423.673818 84.262563L475.737437 136.326182C476.981437 137.570182 476.98188 139.586663 475.73616 140.832382L428.439377 188.129165C438.232198 203.918268 445.57614 221.385392 449.940667 240L516.805762 240C518.569891 240 520 241.422503 520 243.1854630000001L520 316.814537C520 318.57382 518.568746 320 516.805762 320L449.940667 320C445.57614 338.614608 438.232198 356.081732 428.439377 371.870835L475.731232 419.162689C476.978659 420.410117 476.984037 422.4272180000001 475.737437 423.673818L423.673818 475.7374366C422.429818 476.9814371 420.409307 476.9778496 419.162689 475.7312316L371.870835 428.4393770000001C356.081732 438.232198 338.614608 445.57614 320 449.940667L320 516.8127324C320 518.5730117 318.577497 520 316.814537 520L243.185463 520C241.42618 520 240 518.5744457 240 516.8127324L240 449.940667zM280 180C335.228475 180 380 224.771525 380 280C380 335.228475 335.228475 380 280 380C224.771525 380 180 335.228475 180 280C180 224.771525 224.771525 180 280 180z" />
    <glyph glyph-name="close-filled"
      unicode="&#xF710;"
      horiz-adv-x="560" d=" M223.431458 280L154.777466 348.653991C153.647571 349.783887 153.644652 351.634551 154.784307 352.774205L207.225795 405.215693C208.366294 406.356192 210.210132 406.358411 211.346009 405.222534L280 336.568542L348.653991 405.222534C349.783887 406.3524290000001 351.634551 406.355348 352.774205 405.215693L405.215693 352.774205C406.356192 351.633706 406.358411 349.789868 405.222534 348.653991L336.568542 280L405.222534 211.346009C406.352429 210.216113 406.355348 208.365449 405.215693 207.225795L352.774205 154.784307C351.633706 153.643808 349.789868 153.641589 348.653991 154.777466L280 223.431458L211.346009 154.777466C210.216113 153.647571 208.365449 153.644652 207.225795 154.784307L154.784307 207.225795C153.643808 208.366294 153.641589 210.210132 154.777466 211.346009L223.431458 280zM280 40C412.54834 40 520 147.45166 520 280C520 412.54834 412.54834 520 280 520C147.45166 520 40 412.54834 40 280C40 147.45166 147.45166 40 280 40z" />
    <glyph glyph-name="close"
      unicode="&#xF711;"
      horiz-adv-x="560" d=" M280 223.431458L168.927323 112.358781C167.791013 111.222471 165.939042 111.218245 164.799388 112.3579L112.3579 164.799388C111.217401 165.939887 111.21864 167.787182 112.358781 168.927323L223.431458 280L112.358781 391.072677C111.222471 392.208987 111.218245 394.0609580000001 112.3579 395.200612L164.799388 447.6421000000001C165.939887 448.782599 167.787182 448.78136 168.927323 447.641219L280 336.568542L391.072677 447.641219C392.208987 448.777529 394.0609580000001 448.781755 395.200612 447.6421000000001L447.6421000000001 395.200612C448.782599 394.060113 448.78136 392.212818 447.641219 391.072677L336.568542 280L447.641219 168.927323C448.777529 167.791013 448.781755 165.939042 447.6421000000001 164.799388L395.200612 112.3579C394.060113 111.217401 392.2128180000001 111.21864 391.072677 112.358781L280 223.431458z" />
    <glyph glyph-name="plus-filled"
      unicode="&#xF713;"
      horiz-adv-x="560" d=" M320 240L320 142.908594C320 141.310681 318.693447 140 317.081732 140L242.918268 140C241.305359 140 240 141.302222 240 142.908594L240 240L142.908594 240C141.310681 240 140 241.306553 140 242.918268L140 317.081732C140 318.694641 141.302222 320 142.908594 320L240 320L240 417.091406C240 418.689319 241.306553 420 242.918268 420L317.081732 420C318.694641 420 320 418.697778 320 417.091406L320 320L417.091406 320C418.689319 320 420 318.693447 420 317.081732L420 242.918268C420 241.305359 418.6977780000001 240 417.091406 240L320 240zM280 40C412.54834 40 520 147.45166 520 280C520 412.54834 412.54834 520 280 520C147.45166 520 40 412.54834 40 280C40 147.45166 147.45166 40 280 40z" />
    <glyph glyph-name="plus"
      unicode="&#xF714;"
      horiz-adv-x="560" d=" M320 240L320 82.919514C320 81.312529 318.693447 80 317.081732 80L242.918268 80C241.305359 80 240 81.307111 240 82.919514L240 240L82.919514 240C81.312529 240 80 241.306553 80 242.918268L80 317.081732C80 318.694641 81.3071109 320 82.919514 320L240 320L240 477.080486C240 478.687471 241.306553 480 242.918268 480L317.081732 480C318.694641 480 320 478.6928891 320 477.080486L320 320L477.080486 320C478.687471 320 480 318.693447 480 317.081732L480 242.918268C480 241.305359 478.692889 240 477.080486 240L320 240z" />
    <glyph glyph-name="caret-down"
      unicode="&#xF715;"
      horiz-adv-x="560" d=" M301.283984 200.629976L438.71276 363.581239C439.422784 364.4231240000001 439.105934 365.105607 438.003294 365.105607L161.99345 365.105607C160.891599 365.105607 160.577196 364.419288 161.283984 363.581239L298.71276 200.629976C299.422784 199.788091 300.577196 199.791927 301.283984 200.629976z" />
    <glyph glyph-name="caret-up"
      unicode="&#xF716;"
      horiz-adv-x="560" d=" M300 366L440 200L160 200z" />
    <glyph glyph-name="caret-left"
      unicode="&#xF717;"
      horiz-adv-x="560" d=" M195.524369 278.714388C194.682483 279.424412 194.68632 280.578824 195.524369 281.285612L358.475631 418.714388C359.317517 419.424412 360 419.1075620000001 360 418.004922L360 141.995078C360 140.893227 359.31368 140.578824 358.475631 141.285612L195.524369 278.714388L195.524369 278.714388z" />
    <glyph glyph-name="caret-right"
      unicode="&#xF718;"
      horiz-adv-x="560" d=" M283 363L423 197L143 197z" />
    <glyph glyph-name="pictureframe"
      unicode="&#xF719;"
      horiz-adv-x="560" d=" M43.36875 480H516.63125A3.36875 0 0 0 0 520 480V80A3.36875 0 0 0 0 516.63125 80H43.36875A3.36875 0 0 0 0 40 80V480A3.36875 0 0 0 0 43.36875 480z M83.36875 440H476.63125A3.36875 0 0 0 0 480 440V120A3.36875 0 0 0 0 476.63125 120H83.36875A3.36875 0 0 0 0 80 120V440A3.36875 0 0 0 0 83.36875 440z M120.4224563 202.014005L120.4224563 162.232621C120.4224563 160.367161 121.9246173 158.854908 123.7825597 158.854908L437.968077 158.854908C439.823811 158.854908 441.328181 160.370441 441.328181 162.232621L441.328181 291.061383L360 360L282.707306 237.999996L200 280.000004L120.4224563 202.014005z M160 359.722222C160 337.4774195639867 177.9086100067683 319.4444442 200 319.4444442C222.0913899932318 319.4444442 240 337.4774195639867 240 359.722222C240 381.9670244360133 222.0913899932318 399.9999998 200 399.9999998C177.9086100067683 399.9999998 160 381.9670244360133 160 359.722222z" />
    <glyph glyph-name="upload"
      unicode="&#xF720;"
      horiz-adv-x="560" d=" M200 319.5310990000001L200 198L360 198L360 319.5310990000001L450.010936 319.5310990000001L280.010936 465.007251L110.010936 319.5310990000001L200 319.5310990000001zM40.0109356 159.507251L40.0109356 79.507251L520.010936 79.507251L520.010936 159.507251L40.0109356 159.507251z" />
    <glyph glyph-name="download"
      unicode="&#xF721;"
      horiz-adv-x="560" d=" M200 239.007251L200 360L360 360L360 239.007251L450.010936 239.007251L280.010936 93.531099L110.010936 239.007251L200 239.007251zM40 480L40 400L520 400L520 480L40 480z" />
    <glyph glyph-name="share"
      unicode="&#xF722;"
      horiz-adv-x="560" d=" M480 160L480 83.367723C480 81.508617 478.49263 80 476.633195 80L43.3668051 80C41.5069526 80 40 81.507781 40 83.367723L40 476.6322765C40 478.4913835 41.50737 480 43.3668051 480L260 480L260 440L83.3622148 440C81.5053148 440 80 438.484009 80 436.622767L80 123.377233C80 121.512039 81.5075453 120 83.3622148 120L436.637785 120C438.494685 120 440 121.515991 440 123.377233L440 160L480 160z M240 320L240 203.002107C240 201.343416 238.661292 200 237.009913 200L162.990087 200C161.338345 200 160 201.344089 160 203.002107L160 396.997893C160 398.656584 161.338708 400 162.990087 400L233.504956 400L360 400L360 320L240 320zM518.87574 362.111066C520.048936 360.945156 520.044363 359.050299 518.87574 357.888934L362.12426 202.111066C360.951064 200.945156 360 201.34004 360 203.001222L360 516.998778C360 518.6563071 360.955637 519.0502988 362.12426 517.8889341L518.87574 362.111066z" />
    <glyph glyph-name="add-to-collection"
      unicode="&#xF723;"
      horiz-adv-x="560" d=" M215.034786 120L80 120L80 440L100.835938 440L120.835938 480L282.867188 480L321.7773440000001 440L480 440L480 319.619352C450.3511920000001 344.80531 411.950051 360 370 360C276.1115930000001 360 200 283.888407 200 190C200 165.04578 205.376689 141.347352 215.034789 119.999994z M370 50C447.319865 50 510 112.680135 510 190C510 267.319865 447.319865 330 370 330C292.680135 330 230 267.319865 230 190C230 112.680135 292.680135 50 370 50z M400 160L400 87.181446C400 85.983011 399.020085 85 397.811299 85L342.188701 85C340.979019 85 340 85.976667 340 87.181446L340 160L267.181446 160C265.983011 160 265 160.979915 265 162.188701L265 217.811299C265 219.020981 265.976667 220 267.181446 220L340 220L340 292.818554C340 294.016989 340.979915 295 342.188701 295L397.811299 295C399.020981 295 400 294.023333 400 292.818554L400 220L472.818554 220C474.016989 220 475 219.020085 475 217.811299L475 162.188701C475 160.979019 474.023333 160 472.818554 160L400 160z" />
    <glyph glyph-name="bookmark"
      unicode="&#xF724;"
      horiz-adv-x="560" d=" M240 470L240 520L480 520L480 37L360.348214 123.6075L240 37L240 130C333.888407 130 410 206.111593 410 300C410 393.8884070000001 333.888407 470 240 470z M240 159C317.319865 159 380 221.680135 380 299C380 376.319865 317.319865 439 240 439C162.680135 439 100 376.319865 100 299C100 221.680135 162.680135 159 240 159z M270 269L270 196.181446C270 194.983011 269.020085 194 267.811299 194L212.188701 194C210.979019 194 210 194.976667 210 196.181446L210 269L137.181446 269C135.983011 269 135 269.979915 135 271.188701L135 326.811299C135 328.020981 135.976667 329 137.181446 329L210 329L210 401.818554C210 403.016989 210.979915 404 212.188701 404L267.811299 404C269.020981 404 270 403.023333 270 401.818554L270 329L342.818554 329C344.016989 329 345 328.020085 345 326.811299L345 271.188701C345 269.979019 344.023333 269 342.818554 269L270 269z" />
    <glyph glyph-name="cart2"
      unicode="&#xF725;"
      horiz-adv-x="560" d=" M60 479H160V439H60V479z M120 440H160V160H120V440z M440 360H480V160H440V360z M160 200H460V160H160V200z M220 400H480V360H220V400z M140 140H200V80H140V140z M400 140H460V80H400V140z" />
    <glyph glyph-name="arrow-down"
      unicode="&#xF726;"
      horiz-adv-x="560" d=" M60.083682 400L43.0026687 400C41.3347031 400 40.9534909 399.050482 42.1296816 397.879192L277.870318 163.120808C279.0455360000001 161.950487 280.953491 161.949518 282.129682 163.120808L517.870318 397.879192C519.045536 399.049513 518.655659 400 516.997331 400L499.916318 400L282.129682 183.120808C280.953491 181.949518 279.0455360000001 181.950487 277.870318 183.120808L60.083682 400z" />
    <glyph glyph-name="arrow-right"
      unicode="&#xF727;"
      horiz-adv-x="560" d=" M159.5 59.584198L159.5 42.502669C159.5 40.834703 160.449518 40.453491 161.620808 41.629682L396.379192 277.370318C397.549513 278.5455360000001 397.550482 280.453491 396.379192 281.629682L161.620808 517.3703184C160.450487 518.545536 159.5 518.1556594 159.5 516.4973313L159.5 500.6616152L376.998989 282.252588C378.170279 281.076398 378.16931 279.168443 376.998989 277.993225L159.5 59.584198z" />
    <glyph glyph-name="arrow-left"
      unicode="&#xF728;"
      horiz-adv-x="560" d=" M60.083682 181L43.0026687 181C41.3347031 181 40.9534909 181.949518 42.1296816 183.120808L277.870318 417.879192C279.0455360000001 419.049513 280.953491 419.050482 282.129682 417.879192L517.870318 183.120808C519.045536 181.950487 518.655659 181 516.997331 181L499.916318 181L282.129682 397.879192C280.953491 399.050482 279.0455360000001 399.049513 277.870318 397.879192L60.083682 181L60.083682 181z" />
    <glyph glyph-name="arrow-up"
      unicode="&#xF729;"
      horiz-adv-x="560" d=" M379.5 59.584198L379.5 42.502669C379.5 40.834703 378.550482 40.453491 377.379192 41.629682L142.620808 277.370318C141.450487 278.5455360000001 141.449518 280.453491 142.620808 281.629682L377.379192 517.3703184C378.549513 518.545536 379.5 518.1556594 379.5 516.4973313L379.5 500.6616152L162.001011 282.252588C160.829721 281.076398 160.83069 279.168443 162.001011 277.993225L379.5 59.584198L379.5 59.584198z" />
    <glyph glyph-name="dashboard"
      unicode="&#xF730;"
      horiz-adv-x="560" d=" M280 40C412.54834 40 520 147.45166 520 280C520 412.54834 412.54834 520 280 520C147.45166 520 40 412.54834 40 280C40 147.45166 147.45166 40 280 40z M273.21429 504.3793854L285.78571 504.3793854L285.78571 470.8555971L273.21429 470.8555971L273.21429 504.3793854zM317.642701 501.1703998L329.939406 498.5566544L322.969419 465.7654414L310.672714 468.3791867L317.642701 501.1703998zM360.204882 489.0745199L371.776935 484.1624746L358.678148 453.303665L347.106094 458.21571L360.204882 489.0745199zM399.76943 468.6195785L410.067335 461.4089079L390.83888 433.947828L380.540975 441.158499L399.76943 468.6195785zM434.116835 440.732034L442.849678 431.688911L418.734683 408.4013310000001L410.00184 417.444454L434.116835 440.732034zM462.416179 406.3448630000001L469.078017 395.683694L440.648232 377.918792L433.986394 388.579962L462.416179 406.3448630000001zM483.196822 366.946567L487.496501 355.133296L455.994444 343.667485L451.694765 355.4807560000001L483.196822 366.946567zM495.448749 324.430349L497.415352 312.013704L464.304298 306.769428L462.337694 319.186073L495.448749 324.430349zM499.021866 280.0358770000001L498.363929 267.4816850000001L464.886084 269.236184L465.544021 281.790376L499.021866 280.0358770000001zM493.560545 235.8257500000001L490.306822 223.68269L457.925329 232.359285L461.179052 244.502345L493.560545 235.8257500000001zM68.6931779 223.68269L65.4394548 235.8257500000001L97.8209477 244.502345L101.074671 232.359285L68.6931779 223.68269zM60.6360711 267.4816850000001L59.9781338 280.0358770000001L93.4559789 281.790376L94.1139162 269.236184L60.6360711 267.4816850000001zM61.5846476 312.013704L63.5512511 324.430349L96.6623059 319.186073L94.6957024 306.769428L61.5846476 312.013704zM71.5034991 355.133296L75.8031782 366.946567L107.305235 355.4807560000001L103.005556 343.667485L71.5034991 355.133296zM89.9219832 395.683694L96.5838212 406.3448630000001L125.013606 388.579962L118.351768 377.918792L89.9219832 395.683694zM116.150322 431.688911L124.883165 440.732034L148.99816 417.444454L140.265317 408.4013310000001L116.150322 431.688911zM148.932665 461.4089079L159.23057 468.6195785L178.459025 441.158499L168.16112 433.947828L148.932665 461.4089079zM187.223065 484.1624746L198.795118 489.0745199L211.893906 458.21571L200.321852 453.303665L187.223065 484.1624746zM229.060594 498.5566544L241.357299 501.1703998L248.327286 468.3791867L236.030581 465.7654414L229.060594 498.5566544z M228.354419 208.160861L232.986413 204.546475L220.411791 188.471816L215.779796 192.086202L228.354419 208.160861L228.354419 208.160861zM243.088774 194.876565L246.867135 190.37932L231.221004 177.267073L227.442644 181.764318L243.088774 194.876565L243.088774 194.876565zM254.697118 179.010923L257.546871 173.876262L239.683137 163.986613L236.833385 169.121275L254.697118 179.010923L254.697118 179.010923zM262.984741 160.982965L264.703327 155.368753L245.171211 149.404652L243.452625 155.018865L262.984741 160.982965L262.984741 160.982965zM267.385573 141.809895L268 135.971319L247.687315 133.83904L247.072888 139.677615L267.385573 141.809895L267.385573 141.809895zM267.887499 121.954995L267.273072 116.116419L246.960387 118.248699L247.574814 124.087275L267.887499 121.954995L267.887499 121.954995zM264.365753 102.39139L262.549325 96.807989L243.124402 103.111637L244.94083 108.695039L264.365753 102.39139L264.365753 102.39139zM257.007205 84.106299L254.157453 78.971638L236.293719 88.861286L239.143471 93.995948L257.007205 84.106299L257.007205 84.106299zM246.066046 67.48855L242.209675 63.05785L226.795054 76.440821L230.651425 80.871522L246.066046 67.48855L246.066046 67.48855zM231.996877 53.409458L227.302429 49.876361L215.010615 66.167755L219.705063 69.700852L231.996877 53.409458L231.996877 53.409458zM215.517641 42.573561L210.234453 40L201.280909 58.334532L206.564098 60.908093L215.517641 42.573561L215.517641 42.573561zM74 146.304938L75.2221227 152.047384L95.2003694 147.806186L93.9782467 142.06374L74 146.304938L74 146.304938zM79.4658707 165.234524L81.7626216 170.638565L100.56354 162.668027L98.2667889 157.263986L79.4658707 165.234524L79.4658707 165.234524zM88.665435 182.869766L92.0369663 187.678791L108.767797 175.978385L105.396265 171.16936L88.665435 182.869766L88.665435 182.869766zM101.235417 198.298043L105.534376 202.301875L119.463902 187.382965L115.164942 183.379133L101.235417 198.298043L101.235417 198.298043zM116.53344 210.745464L121.51834 213.85648L132.341714 196.557117L127.356815 193.446101L116.53344 210.745464L116.53344 210.745464zM134.149004 219.994296L139.672598 222.002206L146.658213 202.833383L141.13462 200.825473L134.149004 219.994296L134.149004 219.994296zM153.262387 225.502085L159.083267 226.319133L161.925818 206.11862L156.104938 205.301572L153.262387 225.502085L153.262387 225.502085zM172.904733 227L178.774763 226.692749L177.705823 206.32167L171.835793 206.628921L172.904733 227L172.904733 227zM192.616274 224.542175L198.294069 223.022717L193.007801 203.318762L187.330006 204.83822L192.616274 224.542175L192.616274 224.542175zM211.23283 218.185081L216.516018 215.61152L207.562475 197.276988L202.279286 199.850549L211.23283 218.185081L211.23283 218.185081z M333.645581 208.160861L329.013587 204.546475L341.588209 188.471816L346.220204 192.086202L333.645581 208.160861L333.645581 208.160861zM318.911226 194.876565L315.132865 190.37932L330.778996 177.267073L334.5573560000001 181.764318L318.911226 194.876565L318.911226 194.876565zM307.302882 179.010923L304.453129 173.876262L322.316863 163.986613L325.166615 169.121275L307.302882 179.010923L307.302882 179.010923zM299.015259 160.982965L297.296673 155.368753L316.828789 149.404652L318.547375 155.018865L299.015259 160.982965L299.015259 160.982965zM294.614427 141.809895L294 135.971319L314.312685 133.83904L314.927112 139.677615L294.614427 141.809895L294.614427 141.809895zM294.112501 121.954995L294.726928 116.116419L315.039613 118.248699L314.425186 124.087275L294.112501 121.954995L294.112501 121.954995zM297.634247 102.39139L299.450675 96.807989L318.875598 103.111637L317.05917 108.695039L297.634247 102.39139L297.634247 102.39139zM304.992795 84.106299L307.842547 78.971638L325.706281 88.861286L322.856529 93.995948L304.992795 84.106299L304.992795 84.106299zM315.9339540000001 67.48855L319.790325 63.05785L335.204946 76.440821L331.348575 80.871522L315.9339540000001 67.48855L315.9339540000001 67.48855zM330.003123 53.409458L334.697571 49.876361L346.9893850000001 66.167755L342.294937 69.700852L330.003123 53.409458L330.003123 53.409458zM346.482359 42.573561L351.7655470000001 40L360.719091 58.334532L355.435902 60.908093L346.482359 42.573561L346.482359 42.573561zM488 146.304938L486.777877 152.047384L466.799631 147.806186L468.021753 142.06374L488 146.304938L488 146.304938zM482.534129 165.234524L480.237378 170.638565L461.43646 162.668027L463.733211 157.263986L482.534129 165.234524L482.534129 165.234524zM473.334565 182.869766L469.963034 187.678791L453.232203 175.978385L456.603735 171.16936L473.334565 182.869766L473.334565 182.869766zM460.764583 198.298043L456.465624 202.301875L442.536098 187.382965L446.835058 183.379133L460.764583 198.298043L460.764583 198.298043zM445.46656 210.745464L440.48166 213.85648L429.658286 196.557117L434.643185 193.446101L445.46656 210.745464L445.46656 210.745464zM427.850996 219.994296L422.327402 222.002206L415.341787 202.833383L420.86538 200.825473L427.850996 219.994296L427.850996 219.994296zM408.737613 225.502085L402.916733 226.319133L400.074182 206.11862L405.895062 205.301572L408.737613 225.502085L408.737613 225.502085zM389.095267 227L383.225237 226.692749L384.294177 206.32167L390.164207 206.628921L389.095267 227L389.095267 227zM369.383726 224.542175L363.705931 223.022717L368.9921990000001 203.318762L374.669994 204.83822L369.383726 224.542175L369.383726 224.542175zM350.76717 218.185081L345.4839820000001 215.61152L354.437525 197.276988L359.720714 199.850549L350.76717 218.185081L350.76717 218.185081z M259.598496 231.546982L258.689655 231.428571L256 454L306.203686 241.543952C307.361649 238.701936 308 235.590729 308 232.32967C308 218.892764 297.162203 208 283.793103 208C270.684565 208 260.009622 218.472305 259.598496 231.546982L259.598496 231.546982z M163.145749 110.289382L162.801211 110.18361L147 193L180.553343 117.177002C181.190775 116.195696 181.644585 115.078779 181.86082 113.862703C182.751799 108.851969 179.271884 104.055202 174.088212 103.148825C169.00557 102.260113 164.172117 105.441599 163.145749 110.289382L163.145749 110.289382L163.145749 110.289382z M382.799631 115.214718L382.455953 115.330662L419 192L401.084702 110.612984C401.0183 109.440525 400.721457 108.265366 400.171987 107.148812C397.90794 102.548151 392.212175 100.684656 387.45014 102.98658C382.780916 105.24364 380.74306 110.667291 382.799631 115.214718L382.799631 115.214718L382.799631 115.214718z" />
    <glyph glyph-name="downsize"
      unicode="&#xF731;"
      horiz-adv-x="560" d=" M159 521H520V160H159V521z M440 99.5L440 40L40 40L40 440L99.5 440L79 440L79 79L440 79L440 99.5L440 99.5z" />
    <glyph glyph-name="help"
      unicode="&#xF732;"
      horiz-adv-x="560" d=" M204.95 356.55C204.95 415.05 230.3 453.4 283.6 453.4C307 453.4 347.3 433.9 347.3 381.25C347.3 337.7 322.6 322.1 294.65 298.05C260.2 268.15 243.95 242.15 243.95 166.1L314.15 166.1C314.15 228.5 338.2 248 371.35 275.95C399.95 300 428.55 322.75 428.55 383.85C428.55 467.7 366.15 515.15 286.85 515.15C191.3 515.15 130.2 452.1 130.85 356.55L204.95 356.55zM234.2 40L321.3 40L321.3 121.25L234.2 121.25L234.2 40z" />
    <glyph glyph-name="dashboard-white"
      unicode="&#xF733;"
      horiz-adv-x="560" d=" M43.3706269 520C41.5090811 520 40 518.492437 40 516.6293731L40 43.370627C40 41.509081 41.507563 40 43.3706269 40L516.629373 40C518.490919 40 520 41.507563 520 43.370627L520 516.6293731C520 518.4909189 518.492437 520 516.629373 520L43.3706269 520zM83.3677235 480C81.5077812 480 80 478.4913835 80 476.6322765L80 83.367723C80 81.507781 81.5086165 80 83.3677235 80L476.632277 80C478.492219 80 480 81.508617 480 83.367723L480 476.6322765C480 478.4922188 478.491383 480 476.632277 480L83.3677235 480z M215.471576 345.930933L213.982393 345.447068C219.238986 347.155038 225.208631 344.40159 227.312872 339.30457L304.616617 152.054768C310.12641 138.708615 303.455427 124.270609 289.734013 119.812252L285.93473 118.57779C272.205502 114.116893 258.375115 121.883763 255.038857 135.945978L208.260742 333.114158C206.986582 338.484697 210.212417 344.222128 215.471576 345.930933z M282 439H298A2 0 0 0 0 300 439V359A2 0 0 0 0 298 359H282A2 0 0 0 0 280 359V439A2 0 0 0 0 282 439z M212.443199 430.500543C212.308754 431.595508 213.091282 432.592617 214.175721 432.72577L230.074732 434.677923C231.166022 434.811916 232.16018 434.028799 232.294122 432.93793L241.556801 357.499457C241.691246 356.404492 240.908718 355.407383 239.824279 355.27423L223.925268 353.3220770000001C222.833978 353.188084 221.83982 353.971201 221.705878 355.06207L212.443199 430.500543L212.443199 430.500543z M144.504971 412.119407C144.219445 413.185005 144.855586 414.281317 145.91094 414.564098L161.383536 418.709968C162.445558 418.9945360000001 163.539029 418.3574 163.823487 417.295788L183.495029 343.880593C183.780555 342.814995 183.144414 341.718683 182.08906 341.435902L166.616464 337.290032C165.554442 337.005464 164.460971 337.6426 164.176513 338.704212L144.504971 412.119407L144.504971 412.119407z M367.556801 431.500543C367.691246 432.595508 366.908718 433.592617 365.824279 433.72577L349.925268 435.677923C348.833978 435.811916 347.83982 435.028799 347.705878 433.93793L338.443199 358.499457C338.308754 357.404492 339.091282 356.407383 340.175721 356.27423L356.074732 354.3220770000001C357.166022 354.188084 358.1601800000001 354.971201 358.294122 356.06207L367.556801 431.500543L367.556801 431.500543z M435.495029 413.119407C435.780555 414.185005 435.144414 415.281317 434.08906 415.564098L418.616464 419.709968C417.554442 419.9945360000001 416.460971 419.3574 416.176513 418.295788L396.504971 344.880593C396.219445 343.814995 396.855586 342.718683 397.91094 342.435902L413.383536 338.290032C414.445558 338.005464 415.5390290000001 338.6426 415.823487 339.704212L435.495029 413.119407L435.495029 413.119407z" />
    <glyph glyph-name="caret-down-line"
      unicode="&#xF734;"
      horiz-adv-x="560" d=" M230.093216 360L161.995078 360C160.892438 360 160.575588 359.317517 161.285612 358.475631L298.714388 195.524369C299.421176 194.68632 300.575588 194.682483 301.285612 195.524369L438.714388 358.475631C439.421176 359.31368 439.106773 360 438.004922 360L370.093216 360L301.378828 278.524369C300.668804 277.682483 299.514392 277.68632 298.8076040000001 278.524369L230.093216 360z" />
    <glyph glyph-name="caret-right-line"
      unicode="&#xF735;"
      horiz-adv-x="560" d=" M200 349.906784L200 418.004922C200 419.1075620000001 200.682483 419.424412 201.524369 418.714388L364.475631 281.285612C365.31368 280.578824 365.317517 279.424412 364.475631 278.714388L201.524369 141.285612C200.68632 140.578824 200 140.893227 200 141.995078L200 209.906784L281.475631 278.621172C282.317517 279.331196 282.31368 280.485608 281.475631 281.192396L200 349.906784z" />
    <glyph glyph-name="caret-left-line"
      unicode="&#xF736;"
      horiz-adv-x="560" d=" M360 350.661091L360 418.004922C360 419.1075620000001 359.317517 419.424412 358.475631 418.714388L195.524369 281.285612C194.68632 280.578824 194.682483 279.424412 195.524369 278.714388L358.475631 141.285612C359.31368 140.578824 360 140.893227 360 141.995078L360 209.152477L277.629976 278.621172C276.788091 279.331196 276.791927 280.485608 277.629976 281.192396L360 350.661091z" />
    <glyph glyph-name="caret-up-line"
      unicode="&#xF737;"
      horiz-adv-x="560" d=" M229.338909 200L161.995078 200C160.892438 200 160.575588 200.682483 161.285612 201.524369L298.714388 364.475631C299.421176 365.31368 300.575588 365.317517 301.285612 364.475631L438.714388 201.524369C439.421176 200.68632 439.106773 200 438.004922 200L370.847523 200L301.378828 282.370024C300.668804 283.211909 299.514392 283.208073 298.8076040000001 282.370024L229.338909 200z" />
    <glyph glyph-name="bars"
      unicode="&#xF738;"
      horiz-adv-x="560" d=" M82 440H478A2 0 0 0 0 480 440V400A2 0 0 0 0 478 400H82A2 0 0 0 0 80 400V440A2 0 0 0 0 82 440z M82 300H478A2 0 0 0 0 480 300V260A2 0 0 0 0 478 260H82A2 0 0 0 0 80 260V300A2 0 0 0 0 82 300z M82 160H478A2 0 0 0 0 480 160V120A2 0 0 0 0 478 120H82A2 0 0 0 0 80 120V160A2 0 0 0 0 82 160z" />
    <glyph glyph-name="menu"
      unicode="&#xF739;"
      horiz-adv-x="560" d=" M82 260H478A2 0 0 0 0 480 260V240A2 0 0 0 0 478 240H82A2 0 0 0 0 80 240V260A2 0 0 0 0 82 260z M82 340H478A2 0 0 0 0 480 340V320A2 0 0 0 0 478 320H82A2 0 0 0 0 80 320V340A2 0 0 0 0 82 340z M82 440H98A2 0 0 0 0 100 440V80A2 0 0 0 0 98 80H82A2 0 0 0 0 80 80V440A2 0 0 0 0 82 440z M462 440H478A2 0 0 0 0 480 440V80A2 0 0 0 0 478 80H462A2 0 0 0 0 460 80V440A2 0 0 0 0 462 440z M82 480H478A2 0 0 0 0 480 480V400A2 0 0 0 0 478 400H82A2 0 0 0 0 80 400V480A2 0 0 0 0 82 480z M82 180H478A2 0 0 0 0 480 180V160A2 0 0 0 0 478 160H82A2 0 0 0 0 80 160V180A2 0 0 0 0 82 180z M82 100H478A2 0 0 0 0 480 100V60A2 0 0 0 0 478 60H82A2 0 0 0 0 80 60V100A2 0 0 0 0 82 100z" />
    <glyph glyph-name="code"
      unicode="&#xF740;"
      horiz-adv-x="560" d=" M338.697759 39.698992L338.697759 38.875L341.089252 38.875C353.046777 38.875 364.167108 40.987464 374.45058 45.212457C384.734052 49.437449 393.662203 55.296548 401.235302 62.789931C408.808401 70.283313 414.707359 79.171607 418.932351 89.455078C423.1573430000001 99.73855 425.269807 111.018312 425.269807 123.294705L425.269807 211.779948C425.269807 219.751631 426.545258 227.045612 429.096196 233.662109C431.647135 240.278607 435.274197 246.018133 439.97749 250.880859C444.680783 255.743586 450.260878 259.569937 456.717941 262.360026C463.175005 265.1501150000001 470.229839 266.6248550000001 477.882655 266.784288L485.535432 266.784288L485.535432 293.090712L480.274148 293.090712C472.302464 293.090712 464.968626 294.40602 458.272412 297.036675C451.576198 299.667331 445.756956 303.374108 440.814512 308.157118C435.872069 312.940128 432.045718 318.719512 429.335346 325.495443C426.624973 332.2713740000001 425.269807 339.804501 425.269807 348.095052L425.269807 436.580295C425.269807 448.856688 423.1573430000001 460.1364503 418.932351 470.4199219C414.707359 480.7033934 408.808401 489.5916871 401.235302 497.0850694C393.662203 504.5784518 384.734052 510.4375512 374.45058 514.6625434C364.167108 518.8875356 353.046777 521 341.089252 521L338.697759 521L338.697759 520.1760077C334.603765 520.7253369 330.400934 521 326.089252 521L323.697759 521L323.697759 494.4544271L326.089252 494.4544271C334.060935 494.4544271 341.394774 493.1391191 348.090988 490.5084635C354.787202 487.877808 360.606444 484.1710309 365.548887 479.3880208C370.491331 474.6050108 374.317682 468.8256271 377.028054 462.0496962C379.738426 455.273765 381.093592 447.820353 381.093592 439.689236L381.093592 350.964844C381.093592 335.499778 384.401791 321.589399 391.018288 309.23329C397.634786 296.877181 406.68251 287.112015 418.161735 279.9375C406.68251 272.603551 397.634786 262.798528 391.018288 250.522135C384.401791 238.245743 381.093592 224.375222 381.093592 208.910156L381.093592 120.185764C381.093592 112.054647 379.738426 104.601235 377.028054 97.825304C374.317682 91.049373 370.491331 85.269989 365.548887 80.486979C360.606444 75.703969 354.787202 71.997192 348.090988 69.366536C341.394774 66.735881 334.060935 65.420573 326.089252 65.420573L323.697759 65.420573L323.697759 38.875L326.089252 38.875C330.400934 38.875 334.603765 39.149663 338.697759 39.698992zM221.837674 519.6760077L221.837674 520.5L219.446181 520.5C207.488655 520.5 196.368324 518.3875356 186.084852 514.1625434C175.801381 509.9375512 166.873229 504.0784518 159.30013 496.5850694C151.727031 489.0916871 145.828074 480.2033934 141.603082 469.9199219C137.378089 459.63645 135.265625 448.356688 135.265625 436.080295L135.265625 347.595052C135.265625 339.6233690000001 133.990175 332.329388 131.439236 325.712891C128.888297 319.0963930000001 125.261236 313.356867 120.557943 308.494141C115.85465 303.631414 110.274555 299.805063 103.817491 297.014974C97.3604278 294.224885 90.3055938 292.750145 82.6527778 292.590712L75 292.590712L75 266.284288L80.2612847 266.284288C88.2329681 266.284288 95.5668068 264.96898 102.263021 262.338325C108.959235 259.707669 114.778476 256.000892 119.72092 251.217882C124.663364 246.434872 128.489714 240.655488 131.200087 233.879557C133.910459 227.103626 135.265625 219.570499 135.265625 211.279948L135.265625 122.794705C135.265625 110.518312 137.378089 99.23855 141.603082 88.955078C145.828074 78.671607 151.727031 69.783313 159.30013 62.289931C166.873229 54.796548 175.801381 48.937449 186.084852 44.712457C196.368324 40.487464 207.488655 38.375 219.446181 38.375L221.837674 38.375L221.837674 39.198992C225.931668 38.649663 230.134498 38.375 234.446181 38.375L236.837674 38.375L236.837674 64.920573L234.446181 64.920573C226.474497 64.920573 219.140658 66.235881 212.444444 68.866536C205.74823 71.497192 199.928989 75.203969 194.986545 79.986979C190.044101 84.769989 186.217751 90.549373 183.507378 97.325304C180.797006 104.101235 179.44184 111.554647 179.44184 119.685764L179.44184 208.410156C179.44184 223.875222 176.133641 237.785601 169.517144 250.14171C162.900647 262.497819 153.852922 272.262985 142.373698 279.4375C153.852922 286.771449 162.900647 296.576472 169.517144 308.852865C176.133641 321.129257 179.44184 334.999778 179.44184 350.464844L179.44184 439.189236C179.44184 447.320353 180.797006 454.773765 183.507378 461.5496962C186.217751 468.3256271 190.044101 474.1050108 194.986545 478.8880208C199.928989 483.6710309 205.74823 487.377808 212.444444 490.0084635C219.140658 492.6391191 226.474497 493.9544271 234.446181 493.9544271L236.837674 493.9544271L236.837674 520.5L234.446181 520.5C230.134498 520.5 225.931668 520.2253369 221.837674 519.6760077z" />
  </font>
</defs>
</svg>
